<?xml version="1.0" encoding="UTF-8"?><svg width="24px" height="24px" stroke-width="1.5" viewBox="0 0 24 24" fill="none" xmlns="http://www.w3.org/2000/svg" color="#ffa500"><path d="M6 6a3 3 0 013-3h3v6H9a3 3 0 01-3-3zM12 3h3a3 3 0 010 6h-3V3z" stroke="#ffa500" stroke-width="1.5" stroke-linecap="round" stroke-linejoin="round"></path><path d="M12 12a3 3 0 116 0 3 3 0 01-6 0v0zM6 18a3 3 0 013-3h3v3a3 3 0 01-6 0zM6 12a3 3 0 013-3h3v6H9a3 3 0 01-3-3z" stroke="#ffa500" stroke-width="1.5" stroke-linecap="round" stroke-linejoin="round"></path></svg>